<?xml version="1.0" encoding="UTF-8" standalone="no"?>
<!DOCTYPE svg PUBLIC "-//W3C//DTD SVG 1.1//EN"
 "http://www.w3.org/Graphics/SVG/1.1/DTD/svg11.dtd">
<!-- Generated by graphviz version 2.40.1 (20161225.0304)
 -->
<!-- Title: gdmlFlow Pages: 1 -->
<svg preserveAspectRatio="xMinYMin meet"
 viewBox="0.00 0.00 1017.67 1395.00" xmlns="http://www.w3.org/2000/svg" xmlns:xlink="http://www.w3.org/1999/xlink">
<g id="graph0" class="graph" transform="scale(1 1) rotate(0) translate(4 1391)">
<title>gdmlFlow</title>
<polygon fill="#ffffff" stroke="transparent" points="-4,4 -4,-1391 1013.6744,-1391 1013.6744,4 -4,4"/>
<g id="clust1" class="cluster">
<title>cluster_defines</title>
<polygon fill="none" stroke="#000000" points="577.2574,-663 577.2574,-1062 744.0441,-1062 744.0441,-663 577.2574,-663"/>
<text text-anchor="middle" x="660.6507" y="-1046.8" font-family="sans-serif" font-size="14.00" fill="#000000">Definitions</text>
</g>
<g id="clust3" class="cluster">
<title>cluster_solids</title>
<polygon fill="none" stroke="#000000" points="35.3491,-8 35.3491,-1379 341.2234,-1379 341.2234,-8 35.3491,-8"/>
<text text-anchor="middle" x="188.2863" y="-1363.8" font-family="sans-serif" font-size="14.00" fill="#000000">Simple solids</text>
</g>
<g id="clust5" class="cluster">
<title>cluster_advancedsolids</title>
<polygon fill="none" stroke="#000000" points="785.4921,-804 785.4921,-933 1001.6744,-933 1001.6744,-804 785.4921,-804"/>
<text text-anchor="middle" x="893.5833" y="-917.8" font-family="sans-serif" font-size="14.00" fill="#000000">Advanced solids</text>
</g>
<g id="clust7" class="cluster">
<title>cluster_boolean</title>
<polygon fill="none" stroke="#000000" points="798.491,-559 798.491,-796 988.6755,-796 988.6755,-559 798.491,-559"/>
<text text-anchor="middle" x="893.5833" y="-780.8" font-family="sans-serif" font-size="14.00" fill="#000000">Boolean solids</text>
</g>
<g id="clust9" class="cluster">
<title>cluster_material</title>
<polygon fill="none" stroke="#000000" points="361.2234,-1070 361.2234,-1199 986.7257,-1199 986.7257,-1070 361.2234,-1070"/>
<text text-anchor="middle" x="673.9746" y="-1183.8" font-family="sans-serif" font-size="14.00" fill="#000000">Materials</text>
</g>
<!-- aConstant -->
<g id="node1" class="node">
<title>aConstant</title>
<ellipse fill="none" stroke="#000000" cx="660.6507" cy="-743" rx="57.6901" ry="18"/>
<text text-anchor="middle" x="660.6507" y="-739.3" font-family="sans-serif" font-size="14.00" fill="#006400">aConstant</text>
</g>
<!-- aVariable -->
<g id="node2" class="node">
<title>aVariable</title>
<ellipse fill="none" stroke="#000000" cx="660.6507" cy="-689" rx="54.6905" ry="18"/>
<text text-anchor="middle" x="660.6507" y="-685.3" font-family="sans-serif" font-size="14.00" fill="#006400">aVariable</text>
</g>
<!-- auxiliary -->
<g id="node44" class="node">
<title>auxiliary</title>
<ellipse fill="none" stroke="#000000" cx="893.5833" cy="-959" rx="50.0912" ry="18"/>
<text text-anchor="middle" x="893.5833" y="-955.3" font-family="sans-serif" font-size="14.00" fill="#b22222">auxiliary</text>
</g>
<!-- aVariable&#45;&gt;auxiliary -->
<g id="edge46" class="edge">
<title>aVariable&#45;&gt;auxiliary</title>
<path fill="none" stroke="#000000" d="M714.2677,-692.6565C730.3525,-696.4258 746.596,-703.386 757.4921,-716 822.213,-790.9245 718.1487,-864.4236 785.4921,-937 797.7421,-950.2019 815.5788,-956.6731 833.2445,-959.5771"/>
<polygon fill="#000000" stroke="#000000" points="833.2193,-963.1023 843.5824,-960.8987 834.107,-956.1588 833.2193,-963.1023"/>
</g>
<!-- aQuantity -->
<g id="node3" class="node">
<title>aQuantity</title>
<ellipse fill="none" stroke="#000000" cx="660.6507" cy="-797" rx="55.7903" ry="18"/>
<text text-anchor="middle" x="660.6507" y="-793.3" font-family="sans-serif" font-size="14.00" fill="#006400">aQuantity</text>
</g>
<!-- aPosition -->
<g id="node4" class="node">
<title>aPosition</title>
<ellipse fill="none" stroke="#000000" cx="660.6507" cy="-851" rx="51.9908" ry="18"/>
<text text-anchor="middle" x="660.6507" y="-847.3" font-family="sans-serif" font-size="14.00" fill="#006400">aPosition</text>
</g>
<!-- oneTesselatedSolid -->
<g id="node33" class="node">
<title>oneTesselatedSolid</title>
<ellipse fill="none" stroke="#000000" cx="893.5833" cy="-884" rx="100.1823" ry="18"/>
<text text-anchor="middle" x="893.5833" y="-880.3" font-family="sans-serif" font-size="14.00" fill="#006400">oneTesselatedSolid</text>
</g>
<!-- aPosition&#45;&gt;oneTesselatedSolid -->
<g id="edge40" class="edge">
<title>aPosition&#45;&gt;oneTesselatedSolid</title>
<path fill="none" stroke="#000000" stroke-dasharray="5,2" d="M708.9145,-857.8376C728.4218,-860.6013 751.8705,-863.9233 775.4121,-867.2585"/>
<polygon fill="#000000" stroke="#000000" points="775.1038,-870.7496 785.4959,-868.687 776.0857,-863.8189 775.1038,-870.7496"/>
</g>
<!-- solidUnion -->
<g id="node35" class="node">
<title>solidUnion</title>
<ellipse fill="none" stroke="#000000" cx="893.5833" cy="-585" rx="59.2899" ry="18"/>
<text text-anchor="middle" x="893.5833" y="-581.3" font-family="sans-serif" font-size="14.00" fill="#006400">solidUnion</text>
</g>
<!-- aPosition&#45;&gt;solidUnion -->
<g id="edge41" class="edge">
<title>aPosition&#45;&gt;solidUnion</title>
<path fill="none" stroke="#000000" d="M711.9567,-847.8216C728.7673,-844.1808 746.0476,-837.1782 757.4921,-824 819.8099,-752.2421 722.2071,-682.9062 785.4921,-612 787.0468,-610.2581 788.6952,-608.6205 790.425,-607.0811"/>
<polygon fill="#000000" stroke="#000000" points="792.6536,-609.7833 798.4927,-600.9427 788.415,-604.2125 792.6536,-609.7833"/>
</g>
<!-- aPosition&#45;&gt;auxiliary -->
<g id="edge39" class="edge">
<title>aPosition&#45;&gt;auxiliary</title>
<path fill="none" stroke="#000000" d="M710.3306,-856.452C726.7963,-860.3117 744.2739,-866.871 757.4921,-878 779.6957,-896.6941 762.6381,-919.107 785.4921,-937 799.1686,-947.7076 816.7221,-953.5894 833.6887,-956.721"/>
<polygon fill="#000000" stroke="#000000" points="833.157,-960.1803 843.5768,-958.2626 834.2354,-953.2638 833.157,-960.1803"/>
</g>
<!-- aRotation -->
<g id="node5" class="node">
<title>aRotation</title>
<ellipse fill="none" stroke="#000000" cx="660.6507" cy="-959" rx="55.4913" ry="18"/>
<text text-anchor="middle" x="660.6507" y="-955.3" font-family="sans-serif" font-size="14.00" fill="#006400">aRotation</text>
</g>
<!-- aRotation&#45;&gt;solidUnion -->
<g id="edge42" class="edge">
<title>aRotation&#45;&gt;solidUnion</title>
<path fill="none" stroke="#000000" d="M715.0642,-955.4706C730.9998,-951.6884 746.9539,-944.6885 757.4921,-932 803.0997,-877.0868 739.1442,-666.2897 785.4921,-612 787.0318,-610.1965 788.672,-608.5038 790.3994,-606.9154"/>
<polygon fill="#000000" stroke="#000000" points="792.7619,-609.5114 798.4916,-600.5995 788.455,-603.9931 792.7619,-609.5114"/>
</g>
<!-- aRotation&#45;&gt;auxiliary -->
<g id="edge38" class="edge">
<title>aRotation&#45;&gt;auxiliary</title>
<path fill="none" stroke="#000000" d="M716.1479,-959C751.298,-959 796.7664,-959 832.8755,-959"/>
<polygon fill="#000000" stroke="#000000" points="833.2763,-962.5001 843.2762,-959 833.2762,-955.5001 833.2763,-962.5001"/>
</g>
<!-- scaledBox -->
<g id="node6" class="node">
<title>scaledBox</title>
<ellipse fill="none" stroke="#000000" cx="660.6507" cy="-1013" rx="57.6901" ry="18"/>
<text text-anchor="middle" x="660.6507" y="-1009.3" font-family="sans-serif" font-size="14.00" fill="#006400">scaledBox</text>
</g>
<!-- scaledPhysvol -->
<g id="node7" class="node">
<title>scaledPhysvol</title>
<ellipse fill="none" stroke="#000000" cx="660.6507" cy="-905" rx="75.2868" ry="18"/>
<text text-anchor="middle" x="660.6507" y="-901.3" font-family="sans-serif" font-size="14.00" fill="#0000cd">scaledPhysvol</text>
</g>
<!-- oneOrb -->
<g id="node8" class="node">
<title>oneOrb</title>
<ellipse fill="none" stroke="#000000" cx="188.2863" cy="-790" rx="45.4919" ry="18"/>
<text text-anchor="middle" x="188.2863" y="-786.3" font-family="sans-serif" font-size="14.00" fill="#006400">oneOrb</text>
</g>
<!-- oneOrb&#45;&gt;aConstant -->
<g id="edge26" class="edge">
<title>oneOrb&#45;&gt;aConstant</title>
<path fill="none" stroke="#000000" d="M232.7252,-785.5784C316.4605,-777.2467 497.9369,-759.1899 595.4893,-749.4835"/>
<polygon fill="#000000" stroke="#000000" points="595.9186,-752.9582 605.5229,-748.4852 595.2254,-745.9926 595.9186,-752.9582"/>
</g>
<!-- oneOrb&#45;&gt;aVariable -->
<g id="edge27" class="edge">
<title>oneOrb&#45;&gt;aVariable</title>
<path fill="none" stroke="#000000" d="M232.7722,-786.041C263.8258,-782.3452 305.8763,-775.4556 341.2234,-763 350.7914,-759.6284 351.7117,-755.5272 361.2234,-752 440.7236,-722.5189 537.4886,-705.3095 599.0843,-696.5297"/>
<polygon fill="#000000" stroke="#000000" points="599.6151,-699.9896 609.0354,-695.1411 598.6476,-693.0568 599.6151,-699.9896"/>
</g>
<!-- oneOrb&#45;&gt;aQuantity -->
<g id="edge28" class="edge">
<title>oneOrb&#45;&gt;aQuantity</title>
<path fill="none" stroke="#000000" d="M234.0078,-790.6775C318.0889,-791.9236 497.5282,-794.5827 594.7567,-796.0235"/>
<polygon fill="#000000" stroke="#000000" points="594.7117,-799.5231 604.7625,-796.1718 594.8155,-792.5239 594.7117,-799.5231"/>
</g>
<!-- oneSphere -->
<g id="node9" class="node">
<title>oneSphere</title>
<ellipse fill="none" stroke="#000000" cx="188.2863" cy="-520" rx="61.99" ry="18"/>
<text text-anchor="middle" x="188.2863" y="-516.3" font-family="sans-serif" font-size="14.00" fill="#006400">oneSphere</text>
</g>
<!-- oneOrb&#45;&gt;oneSphere -->
<g id="edge1" class="edge">
<title>oneOrb&#45;&gt;oneSphere</title>
<path fill="none" stroke="#000000" stroke-dasharray="1,5" d="M145.3535,-795.9949C103.6322,-799.0433 42.9395,-795.4061 17.3491,-754 -5.783,-716.5714 -5.783,-593.4286 17.3491,-556 38.2058,-522.2533 82.3794,-513.5947 120.5953,-513.1965"/>
<polygon fill="#000000" stroke="#000000" points="120.6496,-516.6969 130.6768,-513.2756 120.7047,-509.6971 120.6496,-516.6969"/>
</g>
<!-- oneBox -->
<g id="node10" class="node">
<title>oneBox</title>
<ellipse fill="none" stroke="#000000" cx="188.2863" cy="-952" rx="45.4919" ry="18"/>
<text text-anchor="middle" x="188.2863" y="-948.3" font-family="sans-serif" font-size="14.00" fill="#006400">oneBox</text>
</g>
<!-- oneOrb&#45;&gt;oneBox -->
<g id="edge6" class="edge">
<title>oneOrb&#45;&gt;oneBox</title>
<path fill="none" stroke="#000000" stroke-dasharray="1,5" d="M145.3535,-784.0051C103.6322,-780.9567 42.9395,-784.5939 17.3491,-826 -3.6801,-860.026 -3.6801,-881.974 17.3491,-916 40.9402,-954.1712 94.3632,-960.2445 135.2535,-958.5721"/>
<polygon fill="#000000" stroke="#000000" points="135.5695,-962.0598 145.3535,-957.9949 135.17,-955.0713 135.5695,-962.0598"/>
</g>
<!-- oneEllipsoid -->
<g id="node12" class="node">
<title>oneEllipsoid</title>
<ellipse fill="none" stroke="#000000" cx="188.2863" cy="-898" rx="66.0889" ry="18"/>
<text text-anchor="middle" x="188.2863" y="-894.3" font-family="sans-serif" font-size="14.00" fill="#0000cd">oneEllipsoid</text>
</g>
<!-- oneOrb&#45;&gt;oneEllipsoid -->
<g id="edge14" class="edge">
<title>oneOrb&#45;&gt;oneEllipsoid</title>
<path fill="none" stroke="#000000" stroke-dasharray="1,5" d="M145.3535,-784.0051C103.6322,-780.9567 42.9395,-784.5939 17.3491,-826 8.9374,-839.6104 8.9374,-848.3896 17.3491,-862 37.4612,-894.542 79.2551,-903.7551 116.481,-904.7285"/>
<polygon fill="#000000" stroke="#000000" points="116.8146,-908.2307 126.8376,-904.7971 116.8611,-901.2309 116.8146,-908.2307"/>
</g>
<!-- oneEllipticalTube -->
<g id="node13" class="node">
<title>oneEllipticalTube</title>
<ellipse fill="none" stroke="#000000" cx="188.2863" cy="-34" rx="88.2844" ry="18"/>
<text text-anchor="middle" x="188.2863" y="-30.3" font-family="sans-serif" font-size="14.00" fill="#0000cd">oneEllipticalTube</text>
</g>
<!-- oneOrb&#45;&gt;oneEllipticalTube -->
<g id="edge16" class="edge">
<title>oneOrb&#45;&gt;oneEllipticalTube</title>
<path fill="none" stroke="#000000" stroke-dasharray="1,5" d="M145.3535,-795.9949C103.6322,-799.0433 42.9395,-795.4061 17.3491,-754 -2.6287,-721.6753 -2.6287,-102.3247 17.3491,-70 33.6785,-43.5785 64.3008,-32.5357 95.1664,-28.7955"/>
<polygon fill="#000000" stroke="#000000" points="95.5617,-32.2737 105.1785,-27.8275 94.888,-25.3062 95.5617,-32.2737"/>
</g>
<!-- oneParaboloid -->
<g id="node16" class="node">
<title>oneParaboloid</title>
<ellipse fill="none" stroke="#000000" cx="188.2863" cy="-844" rx="77.1866" ry="18"/>
<text text-anchor="middle" x="188.2863" y="-840.3" font-family="sans-serif" font-size="14.00" fill="#006400">oneParaboloid</text>
</g>
<!-- oneOrb&#45;&gt;oneParaboloid -->
<g id="edge15" class="edge">
<title>oneOrb&#45;&gt;oneParaboloid</title>
<path fill="none" stroke="#000000" stroke-dasharray="1,5" d="M188.2863,-808.1406C188.2863,-810.6226 188.2863,-813.1046 188.2863,-815.5865"/>
<polygon fill="#000000" stroke="#000000" points="184.7864,-815.7901 188.2863,-825.7902 191.7864,-815.7902 184.7864,-815.7901"/>
</g>
<!-- simpleMaterial -->
<g id="node39" class="node">
<title>simpleMaterial</title>
<ellipse fill="none" stroke="#000000" cx="448.5164" cy="-1096" rx="79.0865" ry="18"/>
<text text-anchor="middle" x="448.5164" y="-1092.3" font-family="sans-serif" font-size="14.00" fill="#006400">simpleMaterial</text>
</g>
<!-- oneOrb&#45;&gt;simpleMaterial -->
<g id="edge25" class="edge">
<title>oneOrb&#45;&gt;simpleMaterial</title>
<path fill="none" stroke="#000000" d="M232.3241,-785.2225C266.7135,-784.1018 313.2183,-788.7634 341.2234,-817 378.9896,-855.0784 343.6938,-885.3151 361.2234,-936 378.5443,-986.0815 410.56,-1039.11 430.6321,-1069.7977"/>
<polygon fill="#000000" stroke="#000000" points="420.6063,-1069.9493 431.2015,-1070 422.9504,-1063.3532 420.6063,-1069.9493"/>
</g>
<!-- oneTube -->
<g id="node11" class="node">
<title>oneTube</title>
<ellipse fill="none" stroke="#000000" cx="188.2863" cy="-628" rx="50.0912" ry="18"/>
<text text-anchor="middle" x="188.2863" y="-624.3" font-family="sans-serif" font-size="14.00" fill="#006400">oneTube</text>
</g>
<!-- oneSphere&#45;&gt;oneTube -->
<g id="edge2" class="edge">
<title>oneSphere&#45;&gt;oneTube</title>
<path fill="none" stroke="#000000" stroke-dasharray="1,5" d="M130.6768,-513.2756C90.4604,-512.2475 40.0695,-519.2376 17.3491,-556 8.9374,-569.6104 8.9374,-578.3896 17.3491,-592 40.1318,-628.8632 90.7369,-635.7906 131.0073,-634.7158"/>
<polygon fill="#000000" stroke="#000000" points="131.1604,-638.2125 140.9997,-634.2834 130.8577,-631.2191 131.1604,-638.2125"/>
</g>
<!-- oneTorus -->
<g id="node22" class="node">
<title>oneTorus</title>
<ellipse fill="none" stroke="#000000" cx="188.2863" cy="-574" rx="53.0913" ry="18"/>
<text text-anchor="middle" x="188.2863" y="-570.3" font-family="sans-serif" font-size="14.00" fill="#006400">oneTorus</text>
</g>
<!-- oneSphere&#45;&gt;oneTorus -->
<g id="edge5" class="edge">
<title>oneSphere&#45;&gt;oneTorus</title>
<path fill="none" stroke="#000000" stroke-dasharray="1,5" d="M188.2863,-538.1406C188.2863,-540.6226 188.2863,-543.1046 188.2863,-545.5865"/>
<polygon fill="#000000" stroke="#000000" points="184.7864,-545.7901 188.2863,-555.7902 191.7864,-545.7902 184.7864,-545.7901"/>
</g>
<!-- oneBox&#45;&gt;scaledBox -->
<g id="edge33" class="edge">
<title>oneBox&#45;&gt;scaledBox</title>
<path fill="none" stroke="#000000" d="M231.8785,-957.6294C315.7019,-968.4541 499.669,-992.2112 597.1389,-1004.7982"/>
<polygon fill="#000000" stroke="#000000" points="596.7878,-1008.2819 607.1538,-1006.0915 597.6844,-1001.3395 596.7878,-1008.2819"/>
</g>
<!-- oneParallelepiped -->
<g id="node17" class="node">
<title>oneParallelepiped</title>
<ellipse fill="none" stroke="#000000" cx="188.2863" cy="-1060" rx="93.6835" ry="18"/>
<text text-anchor="middle" x="188.2863" y="-1056.3" font-family="sans-serif" font-size="14.00" fill="#006400">oneParallelepiped</text>
</g>
<!-- oneBox&#45;&gt;oneParallelepiped -->
<g id="edge7" class="edge">
<title>oneBox&#45;&gt;oneParallelepiped</title>
<path fill="none" stroke="#000000" stroke-dasharray="1,5" d="M145.3535,-946.0051C103.6322,-942.9567 42.9395,-946.5939 17.3491,-988 8.9374,-1001.6104 8.9374,-1010.3896 17.3491,-1024 32.61,-1048.6927 60.3547,-1059.9533 89.1148,-1064.3743"/>
<polygon fill="#000000" stroke="#000000" points="88.951,-1067.8813 99.3111,-1065.6635 89.8292,-1060.9366 88.951,-1067.8813"/>
</g>
<!-- oneTrapezoid -->
<g id="node23" class="node">
<title>oneTrapezoid</title>
<ellipse fill="none" stroke="#000000" cx="188.2863" cy="-1006" rx="73.387" ry="18"/>
<text text-anchor="middle" x="188.2863" y="-1002.3" font-family="sans-serif" font-size="14.00" fill="#006400">oneTrapezoid</text>
</g>
<!-- oneBox&#45;&gt;oneTrapezoid -->
<g id="edge9" class="edge">
<title>oneBox&#45;&gt;oneTrapezoid</title>
<path fill="none" stroke="#000000" stroke-dasharray="1,5" d="M188.2863,-970.1406C188.2863,-972.6226 188.2863,-975.1046 188.2863,-977.5865"/>
<polygon fill="#000000" stroke="#000000" points="184.7864,-977.7901 188.2863,-987.7902 191.7864,-977.7902 184.7864,-977.7901"/>
</g>
<!-- oneTwistedBox -->
<g id="node27" class="node">
<title>oneTwistedBox</title>
<ellipse fill="none" stroke="#000000" cx="188.2863" cy="-1114" rx="79.8859" ry="18"/>
<text text-anchor="middle" x="188.2863" y="-1110.3" font-family="sans-serif" font-size="14.00" fill="#0000cd">oneTwistedBox</text>
</g>
<!-- oneBox&#45;&gt;oneTwistedBox -->
<g id="edge8" class="edge">
<title>oneBox&#45;&gt;oneTwistedBox</title>
<path fill="none" stroke="#000000" stroke-dasharray="1,5" d="M145.3535,-946.0051C103.6322,-942.9567 42.9395,-946.5939 17.3491,-988 -3.6801,-1022.026 -3.6801,-1043.974 17.3491,-1078 35.1219,-1106.7569 69.826,-1117.2963 103.3472,-1120.0307"/>
<polygon fill="#000000" stroke="#000000" points="103.5038,-1123.5459 113.6923,-1120.6403 103.9156,-1116.558 103.5038,-1123.5459"/>
</g>
<!-- twoBoxes -->
<g id="node43" class="node">
<title>twoBoxes</title>
<ellipse fill="none" stroke="#000000" cx="448.5164" cy="-909" rx="55.4913" ry="18"/>
<text text-anchor="middle" x="448.5164" y="-905.3" font-family="sans-serif" font-size="14.00" fill="#006400">twoBoxes</text>
</g>
<!-- oneBox&#45;&gt;twoBoxes -->
<g id="edge34" class="edge">
<title>oneBox&#45;&gt;twoBoxes</title>
<path fill="none" stroke="#000000" d="M230.386,-945.0435C273.3609,-937.9424 340.4508,-926.8566 388.8821,-918.8539"/>
<polygon fill="#000000" stroke="#000000" points="389.6226,-922.2791 398.9182,-917.1955 388.4813,-915.3727 389.6226,-922.2791"/>
</g>
<!-- oneCutTube -->
<g id="node26" class="node">
<title>oneCutTube</title>
<ellipse fill="none" stroke="#000000" cx="188.2863" cy="-736" rx="65.7887" ry="18"/>
<text text-anchor="middle" x="188.2863" y="-732.3" font-family="sans-serif" font-size="14.00" fill="#006400">oneCutTube</text>
</g>
<!-- oneTube&#45;&gt;oneCutTube -->
<g id="edge3" class="edge">
<title>oneTube&#45;&gt;oneCutTube</title>
<path fill="none" stroke="#000000" stroke-dasharray="1,5" d="M140.9997,-621.7166C99.5138,-619.2503 42.0626,-624.0128 17.3491,-664 8.9374,-677.6104 8.9374,-686.3896 17.3491,-700 37.5341,-732.6599 79.5582,-741.8216 116.8854,-742.7388"/>
<polygon fill="#000000" stroke="#000000" points="117.2493,-746.2406 127.267,-742.7915 117.2849,-739.2407 117.2493,-746.2406"/>
</g>
<!-- oneTwistedTube -->
<g id="node30" class="node">
<title>oneTwistedTube</title>
<ellipse fill="none" stroke="#000000" cx="188.2863" cy="-682" rx="85.2851" ry="18"/>
<text text-anchor="middle" x="188.2863" y="-678.3" font-family="sans-serif" font-size="14.00" fill="#0000cd">oneTwistedTube</text>
</g>
<!-- oneTube&#45;&gt;oneTwistedTube -->
<g id="edge4" class="edge">
<title>oneTube&#45;&gt;oneTwistedTube</title>
<path fill="none" stroke="#000000" stroke-dasharray="1,5" d="M188.2863,-646.1406C188.2863,-648.6226 188.2863,-651.1046 188.2863,-653.5865"/>
<polygon fill="#000000" stroke="#000000" points="184.7864,-653.7901 188.2863,-663.7902 191.7864,-653.7902 184.7864,-653.7901"/>
</g>
<!-- oneEllipticalCone -->
<g id="node14" class="node">
<title>oneEllipticalCone</title>
<ellipse fill="none" stroke="#000000" cx="188.2863" cy="-142" rx="90.1842" ry="18"/>
<text text-anchor="middle" x="188.2863" y="-138.3" font-family="sans-serif" font-size="14.00" fill="#0000cd">oneEllipticalCone</text>
</g>
<!-- oneEllipticalTube&#45;&gt;oneEllipticalCone -->
<g id="edge18" class="edge">
<title>oneEllipticalTube&#45;&gt;oneEllipticalCone</title>
<path fill="none" stroke="#000000" stroke-dasharray="1,5" d="M105.1785,-27.8275C71.0964,-30.3256 35.4457,-40.7191 17.3491,-70 8.9374,-83.6104 8.9374,-92.3896 17.3491,-106 33.2497,-131.7276 62.7024,-142.8737 92.7356,-146.8946"/>
<polygon fill="#000000" stroke="#000000" points="92.6061,-150.4009 102.9243,-147.9958 93.3583,-143.4414 92.6061,-150.4009"/>
</g>
<!-- oneHyperbolicTube -->
<g id="node25" class="node">
<title>oneHyperbolicTube</title>
<ellipse fill="none" stroke="#000000" cx="188.2863" cy="-88" rx="99.3824" ry="18"/>
<text text-anchor="middle" x="188.2863" y="-84.3" font-family="sans-serif" font-size="14.00" fill="#006400">oneHyperbolicTube</text>
</g>
<!-- oneEllipticalTube&#45;&gt;oneHyperbolicTube -->
<g id="edge17" class="edge">
<title>oneEllipticalTube&#45;&gt;oneHyperbolicTube</title>
<path fill="none" stroke="#000000" stroke-dasharray="1,5" d="M188.2863,-52.1406C188.2863,-54.6226 188.2863,-57.1046 188.2863,-59.5865"/>
<polygon fill="#000000" stroke="#000000" points="184.7864,-59.7901 188.2863,-69.7902 191.7864,-59.7902 184.7864,-59.7901"/>
</g>
<!-- oneConeSegment -->
<g id="node15" class="node">
<title>oneConeSegment</title>
<ellipse fill="none" stroke="#000000" cx="188.2863" cy="-196" rx="94.4839" ry="18"/>
<text text-anchor="middle" x="188.2863" y="-192.3" font-family="sans-serif" font-size="14.00" fill="#006400">oneConeSegment</text>
</g>
<!-- oneEllipticalCone&#45;&gt;oneConeSegment -->
<g id="edge19" class="edge">
<title>oneEllipticalCone&#45;&gt;oneConeSegment</title>
<path fill="none" stroke="#000000" stroke-dasharray="1,5" d="M188.2863,-160.1406C188.2863,-162.6226 188.2863,-165.1046 188.2863,-167.5865"/>
<polygon fill="#000000" stroke="#000000" points="184.7864,-167.7901 188.2863,-177.7902 191.7864,-167.7902 184.7864,-167.7901"/>
</g>
<!-- onePolycone -->
<g id="node18" class="node">
<title>onePolycone</title>
<ellipse fill="none" stroke="#000000" cx="188.2863" cy="-250" rx="69.5877" ry="18"/>
<text text-anchor="middle" x="188.2863" y="-246.3" font-family="sans-serif" font-size="14.00" fill="#006400">onePolycone</text>
</g>
<!-- oneConeSegment&#45;&gt;onePolycone -->
<g id="edge20" class="edge">
<title>oneConeSegment&#45;&gt;onePolycone</title>
<path fill="none" stroke="#000000" stroke-dasharray="1,5" d="M188.2863,-214.1406C188.2863,-216.6226 188.2863,-219.1046 188.2863,-221.5865"/>
<polygon fill="#000000" stroke="#000000" points="184.7864,-221.7901 188.2863,-231.7902 191.7864,-221.7902 184.7864,-221.7901"/>
</g>
<!-- oneGenericPolycone -->
<g id="node19" class="node">
<title>oneGenericPolycone</title>
<ellipse fill="none" stroke="#000000" cx="188.2863" cy="-412" rx="105.0817" ry="18"/>
<text text-anchor="middle" x="188.2863" y="-408.3" font-family="sans-serif" font-size="14.00" fill="#0000cd">oneGenericPolycone</text>
</g>
<!-- onePolycone&#45;&gt;oneGenericPolycone -->
<g id="edge21" class="edge">
<title>onePolycone&#45;&gt;oneGenericPolycone</title>
<path fill="none" stroke="#000000" stroke-dasharray="1,5" d="M123.814,-243.1821C84.8897,-243.1262 38.794,-251.3014 17.3491,-286 -3.6801,-320.026 -3.6801,-341.974 17.3491,-376 30.1013,-396.6335 51.5703,-407.8881 75.0646,-413.6102"/>
<polygon fill="#000000" stroke="#000000" points="74.3676,-417.0401 84.8735,-415.6704 75.8064,-410.1896 74.3676,-417.0401"/>
</g>
<!-- onePolyhedron -->
<g id="node20" class="node">
<title>onePolyhedron</title>
<ellipse fill="none" stroke="#000000" cx="188.2863" cy="-358" rx="79.8859" ry="18"/>
<text text-anchor="middle" x="188.2863" y="-354.3" font-family="sans-serif" font-size="14.00" fill="#006400">onePolyhedron</text>
</g>
<!-- onePolycone&#45;&gt;onePolyhedron -->
<g id="edge23" class="edge">
<title>onePolycone&#45;&gt;onePolyhedron</title>
<path fill="none" stroke="#000000" stroke-dasharray="1,5" d="M123.814,-243.1821C84.8897,-243.1262 38.794,-251.3014 17.3491,-286 8.9374,-299.6104 8.9374,-308.3896 17.3491,-322 35.1219,-350.7569 69.826,-361.2963 103.3472,-364.0307"/>
<polygon fill="#000000" stroke="#000000" points="103.5038,-367.5459 113.6923,-364.6403 103.9156,-360.558 103.5038,-367.5459"/>
</g>
<!-- oneExtrudedSolid -->
<g id="node31" class="node">
<title>oneExtrudedSolid</title>
<ellipse fill="none" stroke="#000000" cx="188.2863" cy="-304" rx="92.8835" ry="18"/>
<text text-anchor="middle" x="188.2863" y="-300.3" font-family="sans-serif" font-size="14.00" fill="#b22222">oneExtrudedSolid</text>
</g>
<!-- onePolycone&#45;&gt;oneExtrudedSolid -->
<g id="edge24" class="edge">
<title>onePolycone&#45;&gt;oneExtrudedSolid</title>
<path fill="none" stroke="#000000" stroke-dasharray="1,5" d="M188.2863,-268.1406C188.2863,-270.6226 188.2863,-273.1046 188.2863,-275.5865"/>
<polygon fill="#000000" stroke="#000000" points="184.7864,-275.7901 188.2863,-285.7902 191.7864,-275.7902 184.7864,-275.7901"/>
</g>
<!-- oneGenericPolyhedron -->
<g id="node21" class="node">
<title>oneGenericPolyhedron</title>
<ellipse fill="none" stroke="#000000" cx="188.2863" cy="-466" rx="116.1796" ry="18"/>
<text text-anchor="middle" x="188.2863" y="-462.3" font-family="sans-serif" font-size="14.00" fill="#0000cd">oneGenericPolyhedron</text>
</g>
<!-- oneGenericPolycone&#45;&gt;oneGenericPolyhedron -->
<g id="edge22" class="edge">
<title>oneGenericPolycone&#45;&gt;oneGenericPolyhedron</title>
<path fill="none" stroke="#000000" stroke-dasharray="1,5" d="M188.2863,-430.1406C188.2863,-432.6226 188.2863,-435.1046 188.2863,-437.5865"/>
<polygon fill="#000000" stroke="#000000" points="184.7864,-437.7901 188.2863,-447.7902 191.7864,-437.7902 184.7864,-437.7901"/>
</g>
<!-- oneGeneralTrapezoid -->
<g id="node24" class="node">
<title>oneGeneralTrapezoid</title>
<ellipse fill="none" stroke="#000000" cx="188.2863" cy="-1168" rx="110.4804" ry="18"/>
<text text-anchor="middle" x="188.2863" y="-1164.3" font-family="sans-serif" font-size="14.00" fill="#006400">oneGeneralTrapezoid</text>
</g>
<!-- oneTrapezoid&#45;&gt;oneGeneralTrapezoid -->
<g id="edge12" class="edge">
<title>oneTrapezoid&#45;&gt;oneGeneralTrapezoid</title>
<path fill="none" stroke="#000000" stroke-dasharray="1,5" d="M119.8843,-999.2048C81.8328,-999.7029 38.0765,-1008.4624 17.3491,-1042 -3.6801,-1076.026 -3.6801,-1097.974 17.3491,-1132 28.9634,-1150.7924 47.8083,-1161.8049 68.8285,-1167.9436"/>
<polygon fill="#000000" stroke="#000000" points="68.0674,-1171.3613 78.6213,-1170.4315 69.7911,-1164.5769 68.0674,-1171.3613"/>
</g>
<!-- oneTwistedTrapezoid -->
<g id="node28" class="node">
<title>oneTwistedTrapezoid</title>
<ellipse fill="none" stroke="#000000" cx="188.2863" cy="-1276" rx="107.781" ry="18"/>
<text text-anchor="middle" x="188.2863" y="-1272.3" font-family="sans-serif" font-size="14.00" fill="#0000cd">oneTwistedTrapezoid</text>
</g>
<!-- oneTrapezoid&#45;&gt;oneTwistedTrapezoid -->
<g id="edge10" class="edge">
<title>oneTrapezoid&#45;&gt;oneTwistedTrapezoid</title>
<path fill="none" stroke="#000000" stroke-dasharray="1,5" d="M119.8843,-999.2048C81.8328,-999.7029 38.0765,-1008.4624 17.3491,-1042 -5.783,-1079.4286 -5.783,-1202.5714 17.3491,-1240 29.5019,-1259.6636 49.5711,-1270.8093 71.7654,-1276.7662"/>
<polygon fill="#000000" stroke="#000000" points="71.207,-1280.2295 81.7394,-1279.0806 72.7894,-1273.4107 71.207,-1280.2295"/>
</g>
<!-- oneArbitraryTrapezoid -->
<g id="node32" class="node">
<title>oneArbitraryTrapezoid</title>
<ellipse fill="none" stroke="#000000" cx="188.2863" cy="-1222" rx="114.2798" ry="18"/>
<text text-anchor="middle" x="188.2863" y="-1218.3" font-family="sans-serif" font-size="14.00" fill="#006400">oneArbitraryTrapezoid</text>
</g>
<!-- oneTrapezoid&#45;&gt;oneArbitraryTrapezoid -->
<g id="edge11" class="edge">
<title>oneTrapezoid&#45;&gt;oneArbitraryTrapezoid</title>
<path fill="none" stroke="#000000" stroke-dasharray="1,5" d="M119.8843,-999.2048C81.8328,-999.7029 38.0765,-1008.4624 17.3491,-1042 .5257,-1069.2208 .5257,-1158.7792 17.3491,-1186 28.1737,-1203.5145 45.279,-1214.2713 64.5724,-1220.6228"/>
<polygon fill="#000000" stroke="#000000" points="63.6234,-1223.9917 74.2015,-1223.3973 65.5615,-1217.2654 63.6234,-1223.9917"/>
</g>
<!-- oneTwistedGeneralTrapezoid -->
<g id="node29" class="node">
<title>oneTwistedGeneralTrapezoid</title>
<ellipse fill="none" stroke="#000000" cx="188.2863" cy="-1330" rx="144.8743" ry="18"/>
<text text-anchor="middle" x="188.2863" y="-1326.3" font-family="sans-serif" font-size="14.00" fill="#0000cd">oneTwistedGeneralTrapezoid</text>
</g>
<!-- oneGeneralTrapezoid&#45;&gt;oneTwistedGeneralTrapezoid -->
<g id="edge13" class="edge">
<title>oneGeneralTrapezoid&#45;&gt;oneTwistedGeneralTrapezoid</title>
<path fill="none" stroke="#000000" stroke-dasharray="1,5" d="M78.6213,-1165.5685C53.7502,-1171.0043 30.7422,-1182.3295 17.3491,-1204 -3.6801,-1238.026 -3.6801,-1259.974 17.3491,-1294 23.951,-1304.6821 32.8891,-1312.8504 43.235,-1319.0388"/>
<polygon fill="#000000" stroke="#000000" points="41.7579,-1322.2166 52.2363,-1323.783 45.0218,-1316.024 41.7579,-1322.2166"/>
</g>
<!-- oneTetrahedron -->
<g id="node34" class="node">
<title>oneTetrahedron</title>
<ellipse fill="none" stroke="#000000" cx="893.5833" cy="-830" rx="85.2851" ry="18"/>
<text text-anchor="middle" x="893.5833" y="-826.3" font-family="sans-serif" font-size="14.00" fill="#006400">oneTetrahedron</text>
</g>
<!-- solidIntersection -->
<g id="node36" class="node">
<title>solidIntersection</title>
<ellipse fill="none" stroke="#000000" cx="893.5833" cy="-693" rx="87.1846" ry="18"/>
<text text-anchor="middle" x="893.5833" y="-689.3" font-family="sans-serif" font-size="14.00" fill="#006400">solidIntersection</text>
</g>
<!-- solidUnion&#45;&gt;solidIntersection -->
<g id="edge43" class="edge">
<title>solidUnion&#45;&gt;solidIntersection</title>
<path fill="none" stroke="#000000" stroke-dasharray="1,5" d="M834.3525,-585.4328C809.5444,-589.1642 783.67,-598.6943 771.4921,-621 763.8251,-635.0434 763.8251,-642.9566 771.4921,-657 778.2239,-669.3302 789.1409,-677.7566 801.7495,-683.4577"/>
<polygon fill="#000000" stroke="#000000" points="800.6057,-686.7684 811.1939,-687.1441 803.151,-680.2475 800.6057,-686.7684"/>
</g>
<!-- solidMultiUnion -->
<g id="node38" class="node">
<title>solidMultiUnion</title>
<ellipse fill="none" stroke="#000000" cx="893.5833" cy="-639" rx="81.4863" ry="18"/>
<text text-anchor="middle" x="893.5833" y="-635.3" font-family="sans-serif" font-size="14.00" fill="#006400">solidMultiUnion</text>
</g>
<!-- solidUnion&#45;&gt;solidMultiUnion -->
<g id="edge45" class="edge">
<title>solidUnion&#45;&gt;solidMultiUnion</title>
<path fill="none" stroke="#000000" stroke-dasharray="5,2" d="M893.5833,-603.1406C893.5833,-605.6226 893.5833,-608.1046 893.5833,-610.5865"/>
<polygon fill="#000000" stroke="#000000" points="890.0834,-610.7901 893.5833,-620.7902 897.0834,-610.7902 890.0834,-610.7901"/>
</g>
<!-- solidSubtraction -->
<g id="node37" class="node">
<title>solidSubtraction</title>
<ellipse fill="none" stroke="#000000" cx="893.5833" cy="-747" rx="85.2851" ry="18"/>
<text text-anchor="middle" x="893.5833" y="-743.3" font-family="sans-serif" font-size="14.00" fill="#006400">solidSubtraction</text>
</g>
<!-- solidIntersection&#45;&gt;solidSubtraction -->
<g id="edge44" class="edge">
<title>solidIntersection&#45;&gt;solidSubtraction</title>
<path fill="none" stroke="#000000" stroke-dasharray="1,5" d="M893.5833,-711.1406C893.5833,-713.6226 893.5833,-716.1046 893.5833,-718.5865"/>
<polygon fill="#000000" stroke="#000000" points="890.0834,-718.7901 893.5833,-728.7902 897.0834,-718.7902 890.0834,-718.7901"/>
</g>
<!-- compositeMaterial -->
<g id="node40" class="node">
<title>compositeMaterial</title>
<ellipse fill="none" stroke="#000000" cx="660.6507" cy="-1150" rx="96.6831" ry="18"/>
<text text-anchor="middle" x="660.6507" y="-1146.3" font-family="sans-serif" font-size="14.00" fill="#006400">compositeMaterial</text>
</g>
<!-- simpleMaterial&#45;&gt;compositeMaterial -->
<g id="edge29" class="edge">
<title>simpleMaterial&#45;&gt;compositeMaterial</title>
<path fill="none" stroke="#000000" d="M501.4996,-1109.4872C529.3945,-1116.588 563.8892,-1125.3688 593.6258,-1132.9384"/>
<polygon fill="#000000" stroke="#000000" points="592.9572,-1136.3798 603.5116,-1135.4549 594.6841,-1129.5961 592.9572,-1136.3798"/>
</g>
<!-- mixtureMaterial -->
<g id="node42" class="node">
<title>mixtureMaterial</title>
<ellipse fill="none" stroke="#000000" cx="660.6507" cy="-1096" rx="84.485" ry="18"/>
<text text-anchor="middle" x="660.6507" y="-1092.3" font-family="sans-serif" font-size="14.00" fill="#006400">mixtureMaterial</text>
</g>
<!-- simpleMaterial&#45;&gt;mixtureMaterial -->
<g id="edge31" class="edge">
<title>simpleMaterial&#45;&gt;mixtureMaterial</title>
<path fill="none" stroke="#000000" d="M528.1109,-1096C540.449,-1096 553.2975,-1096 565.929,-1096"/>
<polygon fill="#000000" stroke="#000000" points="565.9988,-1099.5001 575.9987,-1096 565.9987,-1092.5001 565.9988,-1099.5001"/>
</g>
<!-- mixtureElement -->
<g id="node41" class="node">
<title>mixtureElement</title>
<ellipse fill="none" stroke="#000000" cx="893.5833" cy="-1150" rx="85.2851" ry="18"/>
<text text-anchor="middle" x="893.5833" y="-1146.3" font-family="sans-serif" font-size="14.00" fill="#006400">mixtureElement</text>
</g>
<!-- compositeMaterial&#45;&gt;mixtureElement -->
<g id="edge30" class="edge">
<title>compositeMaterial&#45;&gt;mixtureElement</title>
<path fill="none" stroke="#000000" d="M757.7484,-1150C771.0781,-1150 784.7561,-1150 798.0573,-1150"/>
<polygon fill="#000000" stroke="#000000" points="798.1434,-1153.5001 808.1434,-1150 798.1433,-1146.5001 798.1434,-1153.5001"/>
</g>
<!-- mixtureMaterial&#45;&gt;auxiliary -->
<g id="edge32" class="edge">
<title>mixtureMaterial&#45;&gt;auxiliary</title>
<path fill="none" stroke="#000000" d="M716.5916,-1082.4785C730.3613,-1078.1292 744.7906,-1072.6667 757.4921,-1066 800.1797,-1043.5943 842.8032,-1007.2574 868.6833,-983.2443"/>
<polygon fill="#000000" stroke="#000000" points="871.2703,-985.6162 876.1591,-976.2167 866.4757,-980.5159 871.2703,-985.6162"/>
</g>
<!-- twoBoxes&#45;&gt;aPosition -->
<g id="edge36" class="edge">
<title>twoBoxes&#45;&gt;aPosition</title>
<path fill="none" stroke="#000000" d="M490.9351,-897.4022C525.1962,-888.0348 573.5171,-874.8233 609.8416,-864.8918"/>
<polygon fill="#000000" stroke="#000000" points="611.0243,-868.197 619.7471,-862.1835 609.1781,-861.4448 611.0243,-868.197"/>
</g>
<!-- twoBoxes&#45;&gt;aRotation -->
<g id="edge37" class="edge">
<title>twoBoxes&#45;&gt;aRotation</title>
<path fill="none" stroke="#000000" d="M493.5046,-919.6037C526.2702,-927.3265 570.832,-937.8297 605.7043,-946.0491"/>
<polygon fill="#000000" stroke="#000000" points="605.1911,-949.524 615.7273,-948.4116 606.797,-942.7107 605.1911,-949.524"/>
</g>
<!-- twoBoxes&#45;&gt;scaledPhysvol -->
<g id="edge35" class="edge">
<title>twoBoxes&#45;&gt;scaledPhysvol</title>
<path fill="none" stroke="#000000" d="M503.6984,-907.9595C525.5041,-907.5483 551.0702,-907.0662 575.163,-906.612"/>
<polygon fill="#000000" stroke="#000000" points="575.4508,-910.1072 585.383,-906.4192 575.3188,-903.1085 575.4508,-910.1072"/>
</g>
</g>
</svg>
